# Blender v2.81 (sub 16) OBJ File: 'Short Dead Grass.blend'
# www.blender.org
mtllib Short Dead Grass.mtl
o Cube
v 1.424477 1.667811 -1.292958
v 0.440755 0.020894 -0.284751
v 1.424477 1.667811 1.649793
v 0.605579 0.020894 0.689319
v -1.436784 1.667811 -1.292958
v -0.506342 0.020894 -0.284751
v -1.436784 1.667811 1.649793
v -0.677776 0.020894 0.689319
v -0.677776 0.020894 0.424836
v 1.233962 2.114437 0.714019
v -1.400790 2.095183 0.714019
v 0.440755 0.020894 0.424836
v 0.085419 0.020894 -0.284751
v 0.278340 0.904978 1.350532
v 0.124084 0.020894 0.689319
v 0.278340 0.904978 -0.993697
v 0.124084 0.020894 0.424836
v 0.278340 0.904978 0.714019
v -0.210462 0.020894 -0.284751
v -0.433735 0.904978 1.350532
v -0.276846 0.020894 0.424836
v -0.276846 0.020894 0.689319
v -0.433735 0.904978 -0.993697
v -0.433735 0.904978 0.714019
v -1.400790 2.095183 -0.213719
v 0.440755 0.020894 0.039344
v -0.677776 0.020894 0.039344
v 1.298777 2.114437 -0.213719
v 0.278340 0.904978 -0.213719
v 0.124084 0.020894 0.039344
v -0.276846 0.020894 0.039344
v -0.433735 0.904978 -0.213719
v -0.677776 0.020894 0.231634
v 1.133503 0.904978 0.249052
v 0.278340 0.904978 0.249052
v 0.124084 0.020894 0.231634
v -0.276846 0.020894 0.231634
v -0.433735 0.904978 0.249052
v -1.145810 0.904978 0.249052
v 0.440755 0.020894 0.231634
v -0.083849 0.020894 0.689319
v -0.090962 1.989932 -1.458112
v -0.090962 0.904978 0.714019
v -0.068033 0.020894 -0.284751
v -0.090962 1.989932 1.800950
v -0.083849 0.020894 0.424836
v -0.090962 0.904978 -0.213719
v -0.083849 0.020894 0.039344
v -0.090962 2.109363 0.249052
v -0.083849 0.020894 0.231634
v -0.677776 0.020894 0.557078
v 1.133503 0.904978 1.032275
v -1.145810 0.904978 1.032275
v 0.605579 0.020894 0.557078
v 0.124084 0.020894 0.557078
v 0.278340 0.904978 1.032275
v -0.276846 0.020894 0.557078
v -0.433735 0.904978 1.032275
v -0.090962 1.461437 1.358494
v -0.083849 0.020894 0.557078
v -1.145810 0.904978 -0.603708
v 0.440755 0.020894 -0.122704
v -0.506342 0.020894 -0.122704
v 1.133503 0.904978 -0.603708
v 0.278340 0.904978 -0.603708
v 0.124084 0.020894 -0.122704
v -0.276846 0.020894 -0.122704
v -0.433735 0.904978 -0.603708
v -0.083849 0.020894 -0.122704
v -0.090962 1.461437 -0.915930
vt 0.796898 0.716060
vt 0.875000 0.716060
vt 0.875000 0.750000
vt 0.796898 0.750000
vt 0.375000 0.921898
vt 0.625000 0.921898
vt 0.625000 1.000000
vt 0.375000 1.000000
vt 0.375000 0.208410
vt 0.625000 0.208410
vt 0.625000 0.250000
vt 0.375000 0.250000
vt 0.281204 0.716060
vt 0.375000 0.716060
vt 0.375000 0.750000
vt 0.281204 0.750000
vt 0.625000 0.716060
vt 0.625000 0.750000
vt 0.375000 0.406204
vt 0.625000 0.406204
vt 0.625000 0.500000
vt 0.375000 0.500000
vt 0.375000 0.632533
vt 0.625000 0.632533
vt 0.625000 0.682119
vt 0.375000 0.682119
vt 0.281204 0.632533
vt 0.281204 0.682119
vt 0.375000 0.033940
vt 0.625000 0.033940
vt 0.625000 0.067881
vt 0.375000 0.067881
vt 0.796898 0.632533
vt 0.875000 0.632533
vt 0.875000 0.682119
vt 0.796898 0.682119
vt 0.718796 0.632533
vt 0.718796 0.682119
vt 0.240698 0.632533
vt 0.240698 0.682119
vt 0.375000 0.365698
vt 0.625000 0.365698
vt 0.240698 0.716060
vt 0.240698 0.750000
vt 0.625000 0.843796
vt 0.375000 0.843796
vt 0.718796 0.716060
vt 0.718796 0.750000
vt 0.125000 0.716060
vt 0.203102 0.716060
vt 0.203102 0.750000
vt 0.125000 0.750000
vt 0.625000 0.328102
vt 0.375000 0.328102
vt 0.125000 0.632533
vt 0.203102 0.632533
vt 0.203102 0.682119
vt 0.125000 0.682119
vt 0.759302 0.632533
vt 0.759302 0.682119
vt 0.375000 0.884302
vt 0.625000 0.884302
vt 0.759302 0.716060
vt 0.759302 0.750000
vt 0.759302 0.541590
vt 0.796898 0.541590
vt 0.796898 0.583181
vt 0.759302 0.583181
vt 0.125000 0.541590
vt 0.203102 0.541590
vt 0.203102 0.583181
vt 0.125000 0.583181
vt 0.240698 0.541590
vt 0.281204 0.541590
vt 0.281204 0.583181
vt 0.240698 0.583181
vt 0.625000 0.541590
vt 0.718796 0.541590
vt 0.718796 0.583181
vt 0.625000 0.583181
vt 0.875000 0.541590
vt 0.875000 0.583181
vt 0.375000 0.541590
vt 0.375000 0.583181
vt 0.375000 0.117467
vt 0.625000 0.117467
vt 0.625000 0.166819
vt 0.375000 0.166819
vt 0.375000 0.000000
vt 0.625000 0.000000
vt 0.718796 0.500000
vt 0.759302 0.500000
vt 0.203102 0.500000
vt 0.240698 0.500000
vt 0.281204 0.500000
vt 0.796898 0.500000
vt 0.875000 0.500000
vt 0.125000 0.500000
vn 0.2517 0.7870 -0.5633
vn -0.1363 -0.5689 0.8110
vn -0.7087 -0.6284 -0.3208
vn 0.0000 -1.0000 0.0000
vn 0.7725 -0.5699 0.2801
vn 0.1493 -0.6017 -0.7846
vn 0.6675 -0.3979 0.6293
vn -0.9152 -0.2985 -0.2707
vn 0.4329 0.6108 -0.6630
vn -0.3885 0.5817 -0.7146
vn -0.3399 -0.5037 -0.7942
vn 0.1158 -0.5670 0.8155
vn -0.2144 0.7887 -0.5762
vn -0.1778 -0.6067 -0.7748
vn -0.7318 0.4165 0.5395
vn 0.3054 -0.4898 0.8166
vn -0.7971 0.4959 -0.3445
vn -0.4589 0.7917 0.4033
vn -0.3489 0.5411 -0.7651
vn 0.3976 0.5610 -0.7261
vn 0.8311 -0.3209 0.4542
vn -0.8610 -0.3741 -0.3446
vn -0.8529 -0.3804 0.3575
vn -0.7308 0.4160 -0.5413
vn -0.3829 0.5938 0.7076
vn 0.4320 0.6095 0.6648
vn 0.7012 -0.4113 -0.5824
vn 0.7048 0.4322 -0.5625
vn 0.4323 0.8035 0.4094
vn 0.7747 0.5193 -0.3608
vn -0.2896 -0.4943 0.8196
vn 0.7059 0.4329 0.5607
vn 0.3459 -0.4957 -0.7966
vn 0.3960 0.7950 -0.4595
vn -0.4214 0.7852 -0.4538
vn -0.3092 0.4629 0.8308
vn -0.8294 -0.5191 0.2063
vn 0.7711 -0.1858 -0.6090
vn 0.3536 0.4989 0.7912
vn 0.8166 0.5021 0.2847
vn 0.6688 -0.6526 -0.3561
vn 0.2760 0.8184 0.5040
vn -0.2361 0.8224 0.5176
vn -0.8361 0.4772 0.2706
vn -0.9124 -0.3877 0.1311
usemtl Material
s off
f 58/1/1 53/2/1 7/3/1 20/4/1
f 22/5/2 20/6/2 7/7/2 8/8/2
f 63/9/3 61/10/3 5/11/3 6/12/3
f 55/13/4 54/14/4 4/15/4 15/16/4
f 54/14/5 52/17/5 3/18/5 4/15/5
f 13/19/6 16/20/6 1/21/6 2/22/6
f 40/23/7 34/24/7 10/25/7 12/26/7
f 36/27/4 40/23/4 12/26/4 17/28/4
f 51/29/8 53/30/8 11/31/8 9/32/8
f 38/33/9 39/34/9 11/35/9 24/36/9
f 34/24/10 35/37/10 18/38/10 10/25/10
f 50/39/4 36/27/4 17/28/4 46/40/4
f 44/41/11 42/42/11 16/20/11 13/19/11
f 60/43/4 55/13/4 15/16/4 41/44/4
f 4/15/12 3/18/12 14/45/12 15/46/12
f 52/17/13 56/47/13 14/48/13 3/18/13
f 51/49/4 57/50/4 22/51/4 8/52/4
f 6/12/14 5/11/14 23/53/14 19/54/14
f 33/55/4 37/56/4 21/57/4 9/58/4
f 49/59/15 38/33/15 24/36/15 43/60/15
f 41/61/16 45/62/16 20/6/16 22/5/16
f 59/63/17 58/1/17 20/4/17 45/64/17
f 70/65/18 68/66/18 32/67/18 47/68/18
f 63/69/4 67/70/4 31/71/4 27/72/4
f 69/73/4 66/74/4 30/75/4 48/76/4
f 64/77/19 65/78/19 29/79/19 28/80/19
f 68/66/20 61/81/20 25/82/20 32/67/20
f 66/74/4 62/83/4 26/84/4 30/75/4
f 62/83/21 64/77/21 28/80/21 26/84/21
f 33/85/22 39/86/22 25/87/22 27/88/22
f 9/32/23 11/31/23 39/86/23 33/85/23
f 47/68/24 32/67/24 38/33/24 49/59/24
f 27/72/4 31/71/4 37/56/4 33/55/4
f 48/76/4 30/75/4 36/27/4 50/39/4
f 28/80/25 29/79/25 35/37/25 34/24/25
f 32/67/26 25/82/26 39/34/26 38/33/26
f 30/75/4 26/84/4 40/23/4 36/27/4
f 26/84/27 28/80/27 34/24/27 40/23/27
f 31/71/4 48/76/4 50/39/4 37/56/4
f 29/79/28 47/68/28 49/59/28 35/37/28
f 67/70/4 69/73/4 48/76/4 31/71/4
f 65/78/29 70/65/29 47/68/29 29/79/29
f 56/47/30 59/63/30 45/64/30 14/48/30
f 15/46/31 14/45/31 45/62/31 41/61/31
f 35/37/32 49/59/32 43/60/32 18/38/32
f 57/50/4 60/43/4 41/44/4 22/51/4
f 19/54/33 23/53/33 42/42/33 44/41/33
f 37/56/4 50/39/4 46/40/4 21/57/4
f 21/57/4 46/40/4 60/43/4 57/50/4
f 18/38/34 43/60/34 59/63/34 56/47/34
f 43/60/35 24/36/35 58/1/35 59/63/35
f 9/58/4 21/57/4 57/50/4 51/49/4
f 10/25/36 18/38/36 56/47/36 52/17/36
f 46/40/4 17/28/4 55/13/4 60/43/4
f 8/89/37 7/90/37 53/30/37 51/29/37
f 12/26/38 10/25/38 52/17/38 54/14/38
f 17/28/4 12/26/4 54/14/4 55/13/4
f 24/36/39 11/35/39 53/2/39 58/1/39
f 16/91/40 42/92/40 70/65/40 65/78/40
f 19/93/4 44/94/4 69/73/4 67/70/4
f 2/22/41 1/21/41 64/77/41 62/83/41
f 13/95/4 2/22/4 62/83/4 66/74/4
f 23/96/42 5/97/42 61/81/42 68/66/42
f 1/21/43 16/91/43 65/78/43 64/77/43
f 44/94/4 13/95/4 66/74/4 69/73/4
f 6/98/4 19/93/4 67/70/4 63/69/4
f 42/92/44 23/96/44 68/66/44 70/65/44
f 27/88/45 25/87/45 61/10/45 63/9/45
