# Blender v2.81 (sub 16) OBJ File: 'Boulder.blend'
# www.blender.org
mtllib Boulder 2.mtl
o Cube_Cube.002
v -1.629043 -2.236174 1.000000
v 0.314657 2.236174 0.525085
v -1.629043 -2.236174 -1.000000
v 0.314657 2.236174 -0.525085
v 1.629043 -2.236174 1.000000
v 0.656961 2.236174 0.525085
v 1.629043 -2.236174 -1.000000
v 0.656961 2.236174 -0.525085
v -0.983840 0.000000 0.603937
v -0.983840 0.000000 -0.603937
v 0.983840 0.000000 -0.603937
v 0.983840 0.000000 0.603937
v -1.817126 -1.118087 -0.801969
v 1.640907 -1.118087 -0.801969
v 1.640907 -1.118087 1.051059
v -1.817126 -1.118087 1.051059
v -0.973414 1.118087 0.597537
v -0.973414 1.118087 -0.925441
v 0.973414 1.118087 -0.925441
v 0.973414 1.118087 0.597537
v -1.648540 -2.153863 0.445015
v -1.648540 -0.378575 0.445015
v -1.648540 -2.153863 -0.993162
v -1.648540 -0.378575 -1.182743
v -0.398745 -2.153863 0.445015
v -0.398745 -0.153863 0.445015
v -0.398745 -2.153863 -0.993162
v -0.398745 -0.153863 -1.182743
vt 0.562500 0.000000
vt 0.625000 0.000000
vt 0.625000 0.250000
vt 0.562500 0.250000
vt 0.625000 0.500000
vt 0.562500 0.500000
vt 0.625000 0.750000
vt 0.562500 0.750000
vt 0.625000 1.000000
vt 0.562500 1.000000
vt 0.125000 0.500000
vt 0.375000 0.500000
vt 0.375000 0.750000
vt 0.125000 0.750000
vt 0.875000 0.500000
vt 0.875000 0.750000
vt 0.437500 0.750000
vt 0.500000 0.750000
vt 0.500000 1.000000
vt 0.437500 1.000000
vt 0.437500 0.500000
vt 0.500000 0.500000
vt 0.437500 0.250000
vt 0.500000 0.250000
vt 0.437500 0.000000
vt 0.500000 0.000000
vt 0.375000 0.000000
vt 0.375000 0.250000
vt 0.375000 1.000000
vt 0.375000 0.000000
vt 0.625000 0.000000
vt 0.625000 0.250000
vt 0.375000 0.250000
vt 0.625000 0.500000
vt 0.375000 0.500000
vt 0.625000 0.750000
vt 0.375000 0.750000
vt 0.625000 1.000000
vt 0.375000 1.000000
vt 0.125000 0.500000
vt 0.125000 0.750000
vt 0.875000 0.500000
vt 0.875000 0.750000
vn -0.7040 0.3343 0.6265
vn -0.2673 0.7445 0.6117
vn -0.2610 0.8265 -0.4988
vn -0.6748 0.2609 -0.6904
vn 0.4955 0.7325 -0.4667
vn 0.6668 0.0952 -0.7391
vn 0.4867 0.6613 0.5707
vn 0.7199 0.1232 0.6830
vn -0.5184 -0.5642 -0.6425
vn 0.5656 -0.5309 -0.6311
vn 0.5764 -0.5920 0.5633
vn -0.5245 -0.6313 0.5712
vn 0.6900 0.2496 0.6794
vn 0.6348 0.3478 0.6899
vn -0.6016 0.3828 0.7011
vn -0.7188 0.2271 0.6571
vn 0.7258 0.2823 -0.6273
vn 0.6738 0.1664 -0.7200
vn -0.7529 0.2558 -0.6064
vn -0.6466 0.1992 -0.7364
vn -0.5773 -0.5773 0.5773
vn -0.6209 0.5192 0.5873
vn -0.6149 0.4883 -0.6192
vn -0.5810 -0.6036 -0.5460
vn 0.5226 0.6072 -0.5985
vn 0.5847 -0.6016 -0.5442
vn 0.5277 0.6311 0.5686
vn 0.5773 -0.5773 0.5773
usemtl Material.001
s 1
f 17/1/1 2/2/2 4/3/3 18/4/4
f 18/4/4 4/3/3 8/5/5 19/6/6
f 19/6/6 8/5/5 6/7/7 20/8/8
f 20/8/8 6/7/7 2/9/2 17/10/1
f 3/11/9 7/12/10 5/13/11 1/14/12
f 8/5/5 4/15/3 2/16/2 6/7/7
f 15/17/13 12/18/14 9/19/15 16/20/16
f 14/21/17 11/22/18 12/18/14 15/17/13
f 13/23/19 10/24/20 11/22/18 14/21/17
f 16/25/16 9/26/15 10/24/20 13/23/19
f 1/27/12 16/25/16 13/23/19 3/28/9
f 3/28/9 13/23/19 14/21/17 7/12/10
f 7/12/10 14/21/17 15/17/13 5/13/11
f 5/13/11 15/17/13 16/20/16 1/29/12
f 12/18/14 20/8/8 17/10/1 9/19/15
f 11/22/18 19/6/6 20/8/8 12/18/14
f 10/24/20 18/4/4 19/6/6 11/22/18
f 9/26/15 17/1/1 18/4/4 10/24/20
f 21/30/21 22/31/22 24/32/23 23/33/24
f 23/33/24 24/32/23 28/34/25 27/35/26
f 27/35/26 28/34/25 26/36/27 25/37/28
f 25/37/28 26/36/27 22/38/22 21/39/21
f 23/40/24 27/35/26 25/37/28 21/41/21
f 28/34/25 24/42/23 22/43/22 26/36/27
