# Blender v2.81 (sub 16) OBJ File: 'Food.blend'
# www.blender.org
mtllib Bar.mtl
o Cube
v 1.279205 -0.282387 0.121039
v 1.150867 -0.280335 0.132323
v 1.150526 -0.310814 0.121683
v 1.151653 -0.289225 -0.103136
v 1.279912 -0.290388 -0.090874
v 1.151233 -0.318815 -0.090230
v -1.158846 -0.281879 0.112883
v -1.158504 -0.251400 0.123524
v -1.286763 -0.250237 0.111262
v -1.158139 -0.289880 -0.099029
v -1.286056 -0.258237 -0.100651
v -1.157719 -0.260289 -0.111935
v 1.286056 0.258237 0.100651
v 1.158139 0.289880 0.099029
v 1.157719 0.260289 0.111935
v 1.158846 0.281879 -0.112883
v 1.286763 0.250237 -0.111262
v 1.158504 0.251400 -0.123524
v -1.151233 0.318815 0.090230
v -1.279912 0.290388 0.090874
v -1.151653 0.289225 0.103136
v -1.150867 0.280335 -0.132323
v -1.279205 0.282387 -0.121039
v -1.150526 0.310814 -0.121683
v 1.411507 0.290509 -0.112709
v 1.404655 -0.339396 -0.088218
v 1.403948 -0.331682 0.123708
v -1.403948 0.331682 -0.123708
v -1.404655 0.339396 0.088218
v -1.411507 -0.290509 0.112709
v -1.410800 -0.298223 -0.099217
v 1.410800 0.298223 0.099217
v 1.152461 -0.225443 -0.105541
v 1.280720 -0.226606 -0.093279
v -1.157696 -0.187618 0.121118
v -1.285955 -0.186455 0.108857
v -1.156910 -0.196508 -0.114340
v -1.285248 -0.194456 -0.103056
v 1.151675 -0.216554 0.129918
v 1.280013 -0.218606 0.118633
v 1.405464 -0.265081 -0.091107
v -1.410699 -0.216194 0.109820
v -1.409992 -0.223908 -0.102106
v 1.404756 -0.257367 0.120818
v 1.153800 -0.119792 -0.109525
v -1.156357 -0.081967 0.117134
v -1.283909 -0.088805 -0.107040
v 1.281352 -0.112954 0.114649
v -1.369481 -0.100810 -0.106892
v 1.367009 -0.134269 0.116032
v 1.282059 -0.120955 -0.097264
v -1.284616 -0.080804 0.104872
v -1.155571 -0.090857 -0.118325
v 1.153014 -0.110903 0.125933
v 1.367697 -0.141983 -0.095894
v -1.370169 -0.093096 0.105034
v 1.155231 -0.006899 -0.113783
v -1.154926 0.030926 0.112877
v -1.282478 0.024089 -0.111298
v 1.282783 -0.000061 0.110392
v -1.407222 0.030727 -0.112006
v 1.407526 -0.002732 0.110918
v 1.283490 -0.008062 -0.101521
v -1.283185 0.032089 0.100615
v -1.154141 0.022037 -0.122582
v 1.154445 0.001991 0.121676
v 1.408233 -0.010446 -0.101008
v -1.407929 0.038441 0.099919
v 1.156866 0.122111 -0.118648
v -1.153291 0.159936 0.108011
v -1.280843 0.153098 -0.116163
v 1.284418 0.128949 0.105527
v -1.366500 0.181042 -0.117851
v 1.369990 0.147583 0.105074
v 1.285125 0.120948 -0.106386
v -1.281551 0.161099 0.095750
v -1.152506 0.151046 -0.127447
v 1.156080 0.131001 0.116811
v 1.370677 0.139869 -0.106852
v -1.367188 0.188756 0.094075
v 1.035975 -0.278329 0.185468
v 1.035667 -0.308808 0.174828
v -1.043638 -0.279873 0.166029
v -1.043331 -0.249393 0.176669
v 1.042522 0.291886 0.152175
v 1.042144 0.262296 0.165080
v -1.037162 0.291231 0.156281
v -1.036784 0.320821 0.143376
v -1.038637 0.161942 0.161157
v 1.036703 -0.214547 0.183063
v -1.042603 -0.185612 0.174264
v 1.037908 -0.108896 0.179079
v -1.041397 -0.079961 0.170280
v 1.039196 0.003997 0.174821
v -1.040109 0.032933 0.166022
v 1.040668 0.133007 0.169956
v 1.282084 -0.121236 -0.104713
v 1.280745 -0.226887 -0.100729
v -1.155547 -0.091138 -0.125774
v -1.156885 -0.196789 -0.121790
v -1.285223 -0.194737 -0.110505
v 1.152486 -0.225724 -0.112990
v 1.153825 -0.120073 -0.116975
v -1.283884 -0.089086 -0.114490
v -1.349135 -0.270373 0.111986
v -1.348428 -0.278230 -0.099934
v -1.341576 0.307034 -0.122373
v -1.342284 0.314892 0.089546
v -1.348327 -0.201325 0.109338
v -1.347620 -0.209182 -0.102581
v -1.326695 -0.094807 -0.106966
v -1.327392 -0.086950 0.104953
v -1.344850 0.027408 -0.111652
v -1.345557 0.035265 0.100267
v -1.323672 0.167070 -0.117007
v -1.324369 0.174927 0.094912
v 1.338859 -0.313546 -0.089619
v 1.338152 -0.305681 0.122300
v 1.345711 0.269267 -0.111946
v 1.345004 0.277133 0.099973
v 1.338961 -0.236922 0.119666
v 1.339668 -0.244788 -0.092253
v 1.321829 -0.123026 0.115303
v 1.322527 -0.130892 -0.096616
v 1.341730 -0.001323 0.110640
v 1.342437 -0.009188 -0.101279
v 1.324855 0.137754 0.105312
v 1.325553 0.129889 -0.106606
v -0.586394 0.273263 -0.130172
v -0.586052 0.303742 -0.119532
v -0.594372 -0.288952 0.115034
v -0.586759 0.311742 0.092381
v -0.593245 -0.267362 -0.109784
v -0.593665 -0.296952 -0.096879
v -0.592437 -0.203580 -0.112189
v -0.591098 -0.097929 -0.116174
v -0.589667 0.014964 -0.120431
v -0.588032 0.143974 -0.125296
v -0.414849 -0.256466 0.178820
v -0.535399 -0.286945 0.168180
v -0.189703 0.284159 0.158432
v -0.528545 0.313749 0.145526
v -0.382640 -0.192684 0.176415
v -0.347675 -0.087033 0.172431
v -0.303868 0.025860 0.168173
v -0.257528 0.154870 0.163308
v -0.592412 -0.203862 -0.119639
v -0.591073 -0.098211 -0.123623
v 0.530958 0.289746 -0.115276
v 0.522638 -0.302947 0.119290
v 0.523765 -0.281358 -0.105528
v 0.470332 -0.300941 0.172436
v 0.391083 0.270163 0.162688
v 0.530617 0.259267 -0.125916
v 0.530251 0.297747 0.096637
v 0.523345 -0.310948 -0.092622
v 0.524574 -0.217576 -0.107933
v 0.525913 -0.111925 -0.111918
v 0.527343 0.000968 -0.116175
v 0.528978 0.129978 -0.121040
v 0.153917 -0.270461 0.183076
v 0.477186 0.299753 0.149782
v 0.187042 -0.206680 0.180671
v 0.223315 -0.101029 0.176686
v 0.276918 0.011864 0.172429
v 0.329231 0.140874 0.167564
v 0.524598 -0.217857 -0.115383
v 0.525937 -0.112206 -0.119367
vt 0.708015 0.512500
vt 0.755000 0.512500
vt 0.755000 0.512500
vt 0.708015 0.512500
vt 0.612500 0.487500
vt 0.625000 0.487500
vt 0.612500 0.500000
vt 0.612500 0.737500
vt 0.625000 0.737500
vt 0.612500 0.750000
vt 0.612500 0.262500
vt 0.612500 0.250000
vt 0.625000 0.262500
vt 0.387500 0.237500
vt 0.387500 0.250000
vt 0.375000 0.237500
vt 0.612500 0.012500
vt 0.612500 0.000000
vt 0.625000 0.012500
vt 0.137500 0.737500
vt 0.137500 0.750000
vt 0.125000 0.737500
vt 0.137500 0.682504
vt 0.125000 0.682504
vt 0.191308 0.512500
vt 0.137500 0.512500
vt 0.137500 0.500000
vt 0.191308 0.500000
vt 0.808692 0.737500
vt 0.862500 0.737500
vt 0.862500 0.750000
vt 0.808692 0.750000
vt 0.708015 0.737500
vt 0.664045 0.737500
vt 0.664045 0.737500
vt 0.708015 0.737500
vt 0.637500 0.512500
vt 0.664045 0.512500
vt 0.664045 0.512500
vt 0.637500 0.512500
vt 0.637500 0.500000
vt 0.664045 0.500000
vt 0.708015 0.500000
vt 0.291985 0.573674
vt 0.291985 0.512500
vt 0.291985 0.512500
vt 0.291985 0.573674
vt 0.637500 0.737500
vt 0.664045 0.750000
vt 0.637500 0.750000
vt 0.612500 0.737500
vt 0.625000 0.737500
vt 0.335955 0.737500
vt 0.335955 0.750000
vt 0.335955 0.750000
vt 0.335955 0.737500
vt 0.245000 0.682504
vt 0.291985 0.682504
vt 0.291985 0.737500
vt 0.245000 0.737500
vt 0.291985 0.750000
vt 0.245000 0.750000
vt 0.755000 0.500000
vt 0.708015 0.750000
vt 0.335955 0.500000
vt 0.335955 0.512500
vt 0.335955 0.512500
vt 0.335955 0.500000
vt 0.637500 0.737500
vt 0.808692 0.512500
vt 0.808692 0.500000
vt 0.191308 0.737500
vt 0.191308 0.750000
vt 0.191308 0.682504
vt 0.755000 0.737500
vt 0.755000 0.750000
vt 0.245000 0.512500
vt 0.245000 0.500000
vt 0.291985 0.500000
vt 0.612500 0.250000
vt 0.625000 0.262500
vt 0.862500 0.512500
vt 0.862500 0.500000
vt 0.808692 0.737500
vt 0.862500 0.737500
vt 0.808692 0.682504
vt 0.862500 0.682504
vt 0.637500 0.682504
vt 0.612500 0.682504
vt 0.862500 0.573674
vt 0.862500 0.512500
vt 0.875000 0.512500
vt 0.875000 0.573674
vt 0.664045 0.682504
vt 0.708015 0.682504
vt 0.755000 0.682504
vt 0.755000 0.737500
vt 0.625000 0.487500
vt 0.612500 0.500000
vt 0.612500 0.573674
vt 0.612500 0.512500
vt 0.612500 0.512500
vt 0.612500 0.573674
vt 0.808692 0.512500
vt 0.625000 0.012500
vt 0.612500 0.012500
vt 0.612500 0.067496
vt 0.612500 0.067496
vt 0.291985 0.500000
vt 0.335955 0.682504
vt 0.335955 0.682504
vt 0.291985 0.737500
vt 0.291985 0.750000
vt 0.808692 0.750000
vt 0.755000 0.750000
vt 0.191308 0.750000
vt 0.137500 0.750000
vt 0.708015 0.750000
vt 0.245000 0.750000
vt 0.664045 0.750000
vt 0.291985 0.750000
vt 0.637500 0.750000
vt 0.862500 0.750000
vt 0.191308 0.500000
vt 0.245000 0.500000
vt 0.808692 0.500000
vt 0.862500 0.500000
vt 0.291985 0.500000
vt 0.755000 0.500000
vt 0.708015 0.500000
vt 0.664045 0.500000
vt 0.637500 0.500000
vt 0.137500 0.500000
vt 0.335955 0.573674
vt 0.335955 0.573674
vt 0.612500 0.176325
vt 0.612500 0.176325
vt 0.612500 0.682504
vt 0.875000 0.682504
vt 0.875000 0.737500
vt 0.637500 0.573674
vt 0.137500 0.573674
vt 0.191308 0.573674
vt 0.245000 0.573674
vt 0.291985 0.682504
vt 0.125000 0.573674
vt 0.125000 0.512500
vt 0.808692 0.573674
vt 0.664045 0.573675
vt 0.708015 0.573674
vt 0.755000 0.573674
vt 0.612500 0.237500
vt 0.612500 0.237500
vt 0.362500 0.682504
vt 0.362500 0.737500
vt 0.387500 0.176325
vt 0.387500 0.682504
vt 0.387500 0.737500
vt 0.362500 0.512500
vt 0.362500 0.500000
vt 0.375000 0.512500
vt 0.387500 0.750000
vt 0.375000 0.737500
vt 0.387500 0.512500
vt 0.387500 0.487500
vt 0.387500 0.987500
vt 0.612500 0.987500
vt 0.612500 1.000000
vt 0.387500 1.000000
vt 0.612500 0.762500
vt 0.387500 0.762500
vt 0.387500 0.262500
vt 0.362500 0.750000
vt 0.362500 0.573674
vt 0.387500 0.573674
vt 0.387500 0.987500
vt 0.612500 0.987500
vt 0.362500 0.750000
vt 0.335955 0.750000
vt 0.612500 0.762500
vt 0.387500 0.762500
vt 0.335955 0.500000
vt 0.362500 0.500000
vt 0.612500 0.262500
vt 0.387500 0.262500
vt 0.387500 0.487500
vt 0.612500 0.487500
vt 0.387500 0.012500
vt 0.387500 0.067496
vt 0.137500 0.500000
vt 0.191308 0.500000
vt 0.387500 0.487500
vt 0.612500 0.487500
vt 0.387500 0.933692
vt 0.612500 0.933692
vt 0.612500 0.987500
vt 0.387500 0.987500
vt 0.387500 0.460955
vt 0.612500 0.460955
vt 0.637500 0.500000
vt 0.664045 0.500000
vt 0.612500 0.262500
vt 0.387500 0.262500
vt 0.612500 0.762500
vt 0.387500 0.762500
vt 0.362500 0.750000
vt 0.335955 0.750000
vt 0.862500 0.750000
vt 0.808692 0.750000
vt 0.664045 0.750000
vt 0.637500 0.750000
vt 0.291985 0.750000
vt 0.708015 0.500000
vt 0.387500 0.416985
vt 0.612500 0.416985
vt 0.612500 0.789045
vt 0.387500 0.789045
vt 0.335955 0.500000
vt 0.362500 0.500000
vt 0.387500 0.370000
vt 0.612500 0.370000
vt 0.755000 0.500000
vt 0.245000 0.750000
vt 0.708015 0.750000
vt 0.612500 0.833015
vt 0.387500 0.833015
vt 0.291985 0.500000
vt 0.191308 0.750000
vt 0.808692 0.500000
vt 0.387500 0.316308
vt 0.612500 0.316308
vt 0.755000 0.750000
vt 0.612500 0.880000
vt 0.387500 0.880000
vt 0.245000 0.500000
vt 0.862500 0.500000
vt 0.137500 0.750000
vn 0.2576 0.0333 0.9657
vn 0.2573 0.0333 0.9657
vn 0.2131 0.0345 0.9764
vn 0.2134 0.0345 0.9763
vn -0.0191 -0.6084 0.7934
vn 0.2575 -0.1495 0.9546
vn 0.1873 -0.8437 0.5031
vn -0.2075 -0.8382 0.5043
vn -0.2625 -0.1447 0.9540
vn -0.0143 -0.6152 0.7883
vn 0.0111 0.6725 0.7400
vn 0.2054 0.8742 0.4400
vn 0.2589 0.2162 0.9414
vn 0.1071 0.8111 -0.5750
vn 0.0146 0.6151 -0.7883
vn 0.0504 0.1468 -0.9879
vn -0.1894 0.8789 0.4378
vn 0.0111 0.6660 0.7458
vn -0.2611 0.2210 0.9396
vn -0.0391 0.1479 -0.9882
vn 0.0195 0.6085 -0.7933
vn -0.0824 0.8135 -0.5757
vn 0.0056 0.1484 -0.9889
vn 0.0123 0.8042 -0.5942
vn 0.0491 -0.0382 -0.9980
vn 0.0487 -0.0384 -0.9980
vn -0.2615 0.0395 0.9644
vn -0.0503 0.0384 0.9980
vn -0.2610 0.0395 0.9645
vn -0.2608 0.0395 0.9646
vn -0.2161 0.0397 0.9755
vn -0.2163 0.0396 0.9755
vn 0.2578 0.0333 0.9656
vn 0.2137 0.0345 0.9763
vn 0.2047 -0.1528 0.9668
vn 0.0410 0.0371 0.9984
vn 0.0414 0.0373 0.9984
vn 0.0113 0.6799 -0.7332
vn 0.0433 0.6903 -0.7222
vn 0.0440 0.6689 -0.7420
vn -0.0483 0.0385 0.9981
vn -0.1486 -0.7540 0.6398
vn -0.2094 -0.1347 0.9685
vn -0.0386 -0.7428 -0.6684
vn -0.3296 -0.3130 -0.8907
vn -0.6060 -0.5950 -0.5279
vn -0.0392 -0.7230 -0.6897
vn 0.0033 -0.0377 -0.9993
vn -0.0204 0.6911 -0.7224
vn -0.0424 -0.0371 -0.9984
vn -0.3218 0.2530 -0.9124
vn -0.0419 -0.0373 -0.9984
vn 0.0421 0.0373 0.9984
vn -0.0489 0.0384 0.9980
vn 0.3292 -0.3210 -0.8880
vn 0.0251 -0.7436 -0.6681
vn 0.0264 -0.7238 -0.6894
vn 0.5950 -0.6100 -0.5233
vn 0.2571 0.0333 0.9658
vn 0.0428 0.0372 0.9984
vn -0.0412 -0.0373 -0.9984
vn -0.2613 0.0395 0.9644
vn -0.0496 0.0384 0.9980
vn 0.0494 -0.0385 -0.9980
vn 0.3359 0.2446 -0.9095
vn 0.1462 0.8018 0.5794
vn 0.2059 0.2106 0.9556
vn -0.2166 0.0396 0.9754
vn -0.2077 0.2187 0.9534
vn -0.0042 0.0392 0.9992
vn -0.0013 0.2290 0.9734
vn -0.0078 -0.1620 0.9868
vn -0.0128 -0.7996 0.6004
vn -0.0010 0.2264 0.9740
vn 0.0090 0.8452 0.5343
vn -0.0047 0.0395 0.9992
vn -0.0045 0.0391 0.9992
vn -0.0045 0.0392 0.9992
vn -0.2164 0.0396 0.9755
vn 0.1295 -0.7786 0.6139
vn -0.0129 -0.9995 0.0300
vn -0.0122 -0.8156 0.5784
vn 0.2128 0.0346 0.9765
vn -0.1320 0.8191 0.5582
vn 0.0130 0.9988 -0.0461
vn 0.0089 0.8501 0.5266
vn 0.6097 0.5536 -0.5672
vn -0.0066 -0.7332 -0.6800
vn -0.0216 0.6698 -0.7422
vn -0.5913 0.5687 -0.5718
vn -0.0059 0.0383 0.9992
vn -0.0042 0.0384 0.9992
vn 0.0059 -0.0383 -0.9992
vn 0.2643 0.6306 -0.7297
vn -0.0030 0.0382 0.9992
vn 0.0043 -0.0384 -0.9992
vn -0.0017 0.0385 0.9992
vn 0.0030 -0.0382 -0.9992
vn 0.2159 -0.6456 0.7324
vn 0.2547 0.6841 0.6834
vn 0.0024 -0.0381 -0.9993
vn 0.0039 -0.0385 -0.9992
vn -0.0025 0.0381 0.9993
vn -0.2178 0.6996 0.6805
vn 0.0054 -0.0382 -0.9992
vn -0.0039 0.0385 0.9992
vn -0.0054 0.0382 0.9992
vn -0.0061 0.0378 0.9992
vn -0.2637 -0.6303 0.7302
vn -0.2155 0.6456 -0.7326
vn 0.0129 0.9995 -0.0299
vn -0.0130 -0.9988 0.0462
vn -0.0084 -0.1654 0.9862
vn -0.0046 0.0395 0.9992
vn -0.0044 0.0392 0.9992
vn 0.0009 -0.2226 -0.9749
vn -0.0438 -0.2209 -0.9743
vn -0.0086 -0.8467 -0.5320
vn -0.1035 -0.8522 -0.5129
vn 0.0457 -0.2220 -0.9740
vn -0.0114 -0.6662 -0.7457
vn 0.0860 -0.8545 -0.5122
vn -0.0114 -0.6725 -0.7400
vn 0.2174 -0.6995 -0.6807
vn 0.0018 -0.0385 -0.9992
vn 0.0061 -0.0378 -0.9992
vn -0.2553 -0.6844 -0.6829
vn 0.5766 0.5815 -0.5739
vn 0.6422 -0.0361 -0.7656
vn 0.4646 -0.7077 -0.5322
vn 0.4597 -0.6655 0.5881
vn -0.6361 -0.0231 -0.7712
vn -0.6440 0.0362 0.7641
vn -0.5521 0.6474 0.5253
vn -0.5470 0.6065 -0.5770
vn 0.7341 0.0798 -0.6744
vn 0.7280 0.1312 0.6729
vn 0.5737 0.6234 0.5312
vn -0.4919 -0.6441 0.5857
vn -0.4893 -0.6864 -0.5379
vn -0.7270 0.0946 -0.6800
vn -0.7300 0.1467 0.6674
vn -0.6234 -0.0184 -0.7816
vn 0.6225 0.0298 0.7821
vn 0.6302 -0.0303 -0.7758
vn 0.7606 -0.0453 -0.6477
vn 0.7563 0.0045 0.6542
vn -0.7565 -0.0306 -0.6533
vn -0.6287 0.0423 0.7765
vn 0.6376 0.0236 0.7700
vn -0.7610 0.0192 0.6485
usemtl Material
s 1
f 54/1/1 66/2/2 94/3/3 92/4/4
f 1/5/5 2/6/6 3/7/7
f 7/8/8 8/9/9 9/10/10
f 13/11/11 14/12/12 15/13/13
f 16/14/14 17/15/15 18/16/16
f 19/17/17 20/18/18 21/19/19
f 22/20/20 23/21/21 24/22/22
f 129/23/23 22/20/20 24/22/22 130/24/24
f 69/25/25 18/26/16 17/27/15 75/28/26
f 70/29/27 21/30/19 20/31/18 76/32/28
f 46/33/29 35/34/30 91/35/31 93/36/32
f 2/37/6 39/38/33 90/39/34 81/40/35
f 39/38/33 2/37/6 1/41/5 40/42/36
f 54/1/1 39/38/33 40/42/36 48/43/37
f 158/44/38 45/45/39 103/46/40 168/47/38
f 8/48/9 35/34/30 36/49/41 9/50/10
f 8/9/9 7/8/8 83/51/42 84/52/43
f 37/53/44 38/54/45 101/55/46 100/56/47
f 137/57/48 136/58/38 53/59/49 65/60/50
f 65/60/50 53/59/49 47/61/51 59/62/52
f 66/2/2 54/1/1 48/43/37 60/63/53
f 35/34/30 46/33/29 52/64/54 36/49/41
f 34/65/55 33/66/56 102/67/57 98/68/58
f 35/34/30 8/48/9 84/69/43 91/35/31
f 78/70/59 66/2/2 60/63/53 72/71/60
f 77/72/50 65/60/50 59/62/52 71/73/61
f 138/74/48 137/57/48 65/60/50 77/72/50
f 46/33/29 58/75/62 64/76/63 52/64/54
f 45/45/39 57/77/25 63/78/64 51/79/65
f 15/13/13 14/12/12 85/80/66 86/81/67
f 129/23/23 138/74/48 77/72/50 22/20/20
f 22/20/20 77/72/50 71/73/61 23/21/21
f 15/82/13 78/70/59 72/71/60 13/83/11
f 58/75/62 70/29/27 76/32/28 64/76/63
f 57/77/25 69/25/25 75/28/26 63/78/64
f 21/30/19 70/29/27 89/84/68 87/85/69
f 146/86/70 141/87/71 87/85/69 89/84/68
f 139/88/72 84/69/43 83/51/42 140/89/73
f 153/90/74 86/91/67 85/92/66 162/93/75
f 139/88/72 143/94/76 91/35/31 84/69/43
f 143/94/76 144/95/77 93/36/32 91/35/31
f 144/95/77 145/96/78 95/97/79 93/36/32
f 145/96/78 146/86/70 89/84/68 95/97/79
f 3/7/7 2/6/6 81/98/35 82/99/80
f 150/100/81 3/101/7 82/102/80 152/103/82
f 58/75/62 46/33/29 93/36/32 95/97/79
f 66/2/2 78/70/59 96/104/83 94/3/3
f 19/17/17 21/19/19 87/105/69 88/106/84
f 39/38/33 54/1/1 92/4/4 90/39/34
f 70/29/27 58/75/62 95/97/79 89/84/68
f 78/70/59 15/82/13 86/91/67 96/104/83
f 132/107/85 19/17/17 88/106/84 142/108/86
f 45/45/39 51/79/65 97/109/87 103/46/40
f 51/79/65 34/65/55 98/68/58 97/109/87
f 135/110/88 37/53/44 100/56/47 147/111/88
f 47/61/51 53/59/49 99/112/89 104/113/90
f 38/54/45 47/61/51 104/113/90 101/55/46
f 64/76/63 76/32/28 116/114/91 114/115/92
f 23/21/21 71/73/61 115/116/93 107/117/94
f 52/64/54 64/76/63 114/115/92 112/118/95
f 71/73/61 59/62/52 113/119/96 115/116/93
f 36/49/41 52/64/54 112/118/95 109/120/97
f 59/62/52 47/61/51 111/121/98 113/119/96
f 9/50/10 36/49/41 109/120/97 105/122/99
f 76/32/28 20/31/18 108/123/100 116/114/91
f 63/78/64 75/28/26 128/124/101 126/125/102
f 13/83/11 72/71/60 127/126/103 120/127/104
f 51/79/65 63/78/64 126/125/102 124/128/105
f 72/71/60 60/63/53 125/129/106 127/126/103
f 60/63/53 48/43/37 123/130/107 125/129/106
f 48/43/37 40/42/36 121/131/108 123/130/107
f 40/42/36 1/41/5 118/132/109 121/131/108
f 75/28/26 17/27/15 119/133/110 128/124/101
f 157/134/88 135/110/88 147/111/88 167/135/88
f 155/136/111 132/107/85 142/108/86 162/137/75
f 7/8/8 131/138/112 140/89/73 83/51/42
f 87/85/69 141/87/71 142/139/86 88/140/84
f 161/141/113 139/88/72 140/89/73 152/103/82
f 154/142/23 160/143/48 138/74/48 129/23/23
f 160/143/48 159/144/48 137/57/48 138/74/48
f 159/144/48 158/44/38 136/58/38 137/57/48
f 53/59/49 136/58/38 148/145/38 99/112/89
f 154/142/23 129/23/23 130/24/24 149/146/24
f 18/26/16 154/142/23 149/146/24 16/147/14
f 57/77/25 45/45/39 158/44/38 159/144/48
f 69/25/25 57/77/25 159/144/48 160/143/48
f 18/26/16 69/25/25 160/143/48 154/142/23
f 96/104/83 86/91/67 153/90/74 166/148/114
f 81/40/35 161/141/113 152/103/82 82/102/80
f 81/40/35 90/39/34 163/149/115 161/141/113
f 90/39/34 92/4/4 164/150/78 163/149/115
f 92/4/4 94/3/3 165/151/78 164/150/78
f 94/3/3 96/104/83 166/148/114 165/151/78
f 14/152/12 155/136/111 162/137/75 85/153/66
f 131/138/112 150/100/81 152/103/82 140/89/73
f 141/87/71 153/90/74 162/93/75 142/139/86
f 136/58/38 158/44/38 168/47/38 148/145/38
usemtl Material.001
f 135/110/88 133/154/116 12/155/117 37/53/44
f 149/156/24 155/136/111 14/152/12 16/14/14
f 134/157/118 131/138/112 7/8/8 10/158/119
f 4/159/120 5/160/121 6/161/122
f 10/158/119 11/162/123 12/163/117
f 3/101/7 6/164/122 5/165/121 1/5/5
f 23/166/21 20/167/18 19/168/17 24/169/22
f 9/170/10 11/171/123 10/158/119 7/8/8
f 13/11/11 17/172/15 16/14/14 14/152/12
f 37/53/44 12/155/117 11/173/123 38/54/45
f 151/174/116 4/159/120 6/164/122 156/175/118
f 4/159/120 33/66/56 34/65/55 5/160/121
f 20/167/18 23/166/21 107/176/94 108/177/100
f 38/54/45 11/173/123 106/178/124 110/179/125
f 11/171/123 9/170/10 105/180/99 106/181/124
f 5/160/121 34/65/55 122/182/126 117/183/127
f 17/172/15 13/11/11 120/184/104 119/185/110
f 1/5/5 5/165/121 117/186/127 118/187/109
f 12/155/117 133/154/116 134/157/118 10/158/119
f 156/175/118 150/100/81 131/138/112 134/157/118
f 24/188/22 19/17/17 132/107/85 130/189/24
f 157/134/88 151/174/116 133/154/116 135/110/88
f 33/66/56 4/159/120 151/174/116 157/134/88
f 6/164/122 3/101/7 150/100/81 156/175/118
f 33/66/56 157/134/88 167/135/88 102/67/57
f 133/154/116 151/174/116 156/175/118 134/157/118
f 130/189/24 132/107/85 155/136/111 149/156/24
usemtl Material.002
f 128/124/101 119/133/110 25/190/128 79/191/129
f 118/187/109 117/186/127 26/192/130 27/193/131
f 73/194/132 80/195/133 29/196/134 28/197/135
f 41/198/136 44/199/137 27/193/131 26/192/130
f 121/131/108 118/132/109 27/200/131 44/201/137
f 119/185/110 120/184/104 32/202/138 25/203/128
f 106/181/124 105/180/99 30/204/139 31/205/140
f 110/179/125 106/178/124 31/206/140 43/207/141
f 108/177/100 107/176/94 28/197/135 29/196/134
f 116/114/91 108/123/100 29/208/134 80/209/133
f 105/122/99 109/120/97 42/210/142 30/211/139
f 111/121/98 110/179/125 43/207/141 49/212/143
f 123/130/107 121/131/108 44/201/137 50/213/144
f 55/214/145 50/215/144 44/199/137 41/198/136
f 31/205/140 30/204/139 42/216/142 43/217/141
f 117/183/127 122/182/126 41/218/136 26/219/130
f 67/220/146 62/221/147 50/215/144 55/214/145
f 125/129/106 123/130/107 50/213/144 62/222/147
f 113/119/96 111/121/98 49/212/143 61/223/148
f 109/120/97 112/118/95 56/224/149 42/210/142
f 43/217/141 42/216/142 56/225/149 49/226/143
f 122/182/126 124/128/105 55/227/145 41/218/136
f 115/116/93 113/119/96 61/223/148 73/228/132
f 127/126/103 125/129/106 62/222/147 74/229/150
f 79/230/129 74/231/150 62/221/147 67/220/146
f 112/118/95 114/115/92 68/232/151 56/224/149
f 49/226/143 56/225/149 68/233/151 61/234/148
f 124/128/105 126/125/102 67/235/146 55/227/145
f 25/203/128 32/202/138 74/231/150 79/230/129
f 120/127/104 127/126/103 74/229/150 32/236/138
f 107/117/94 115/116/93 73/228/132 28/237/135
f 114/115/92 116/114/91 80/209/133 68/232/151
f 61/234/148 68/233/151 80/195/133 73/194/132
f 126/125/102 128/124/101 79/191/129 67/235/146
f 99/112/89 100/56/47 101/55/46 104/113/90
f 148/145/38 147/111/88 100/56/47 99/112/89
f 102/67/57 103/46/40 97/109/87 98/68/58
f 47/61/51 38/54/45 110/179/125 111/121/98
f 34/65/55 51/79/65 124/128/105 122/182/126
f 168/47/38 167/135/88 147/111/88 148/145/38
f 165/151/78 166/148/114 146/86/70 145/96/78
f 164/150/78 165/151/78 145/96/78 144/95/77
f 163/149/115 164/150/78 144/95/77 143/94/76
f 161/141/113 163/149/115 143/94/76 139/88/72
f 166/148/114 153/90/74 141/87/71 146/86/70
f 103/46/40 102/67/57 167/135/88 168/47/38
