# Blender v2.81 (sub 16) OBJ File: 'Darker Gray Tree Branch.blend'
# www.blender.org
mtllib Lightest Gray Tree Branch.mtl
o Cube.003
v 0.649458 2.149648 0.242301
v 0.705219 0.019176 0.174263
v 0.649458 2.149648 0.263684
v 0.705219 0.019176 0.247069
v 0.603085 2.149648 0.242301
v 0.547324 0.019176 0.174263
v 0.603085 2.149648 0.263684
v 0.547324 0.019176 0.247069
v 0.674032 0.606256 0.188644
v 0.578511 0.606256 0.232689
v 0.674032 0.606256 0.232689
v 0.578511 0.606256 0.188644
v 0.578511 1.117936 0.312443
v 0.674032 1.117936 0.268398
v 0.674032 1.117936 0.312443
v 0.578511 1.117936 0.268398
v 0.578511 1.710496 0.230098
v 0.674032 1.710496 0.186053
v 0.674032 1.710496 0.230098
v 0.578511 1.710496 0.186053
v 0.679937 0.495104 0.185921
v 0.679937 0.495104 0.235412
v 0.572606 0.495104 0.185921
v 0.572606 0.495104 0.235412
v 0.674032 1.043241 0.256755
v 0.674032 1.043241 0.300801
v 0.578511 1.043241 0.256755
v 0.578511 1.043241 0.300801
v 0.674032 1.414216 0.227225
v 0.674032 1.414216 0.271271
v 0.578511 1.414216 0.227225
v 0.578511 1.414216 0.271271
v 0.578511 1.465345 0.264165
v 0.674032 1.465345 0.220120
v 0.674032 1.465345 0.264165
v 0.578511 1.465345 0.220120
v 0.575916 0.760288 0.576555
v 0.581457 0.782643 0.492881
v 0.671086 0.782643 0.492881
v 0.676627 0.760288 0.576555
v 0.610133 1.328736 0.649120
v 0.611908 1.335901 0.622302
v 0.640635 1.335901 0.622302
v 0.642410 1.328736 0.649120
v 0.594987 1.168679 -0.005000
v 0.657556 1.168679 -0.005000
v 0.657556 1.132555 -0.071744
v 0.594987 1.132555 -0.071744
v 0.659636 1.145368 0.032930
v 0.592907 1.145368 0.032930
v 0.592907 1.121281 -0.030281
v 0.659636 1.121281 -0.030281
v 0.602503 1.569826 -0.077823
v 0.650040 1.569826 -0.077823
v 0.651620 1.552115 -0.049006
v 0.600923 1.552115 -0.049006
v 0.594987 1.392949 -0.342605
v 0.657556 1.392949 -0.342605
v 0.657556 1.349227 -0.362182
v 0.594987 1.349227 -0.362182
v 0.608957 1.519287 -0.437378
v 0.643586 1.519287 -0.437378
v 0.643586 1.495089 -0.448213
v 0.608957 1.495089 -0.448213
vt 0.625000 0.500000
vt 0.875000 0.500000
vt 0.875000 0.750000
vt 0.625000 0.750000
vt 0.602309 0.750000
vt 0.625000 1.000000
vt 0.602309 1.000000
vt 0.602309 0.000000
vt 0.625000 0.000000
vt 0.625000 0.250000
vt 0.602309 0.250000
vt 0.125000 0.500000
vt 0.375000 0.500000
vt 0.375000 0.750000
vt 0.125000 0.750000
vt 0.602309 0.500000
vt 0.438964 0.250000
vt 0.453902 0.250000
vt 0.453902 0.500000
vt 0.438964 0.500000
vt 0.453902 0.750000
vt 0.438964 0.750000
vt 0.438964 0.000000
vt 0.453902 0.000000
vt 0.453902 1.000000
vt 0.453902 1.000000
vt 0.453902 0.750000
vt 0.522671 0.500000
vt 0.522671 0.500000
vt 0.522671 0.500000
vt 0.522671 0.500000
vt 0.512632 0.500000
vt 0.522671 0.500000
vt 0.522671 0.750000
vt 0.512632 0.750000
vt 0.512632 0.000000
vt 0.522671 0.000000
vt 0.522671 0.250000
vt 0.512632 0.250000
vt 0.522671 1.000000
vt 0.512632 1.000000
vt 0.569362 0.250000
vt 0.569362 0.500000
vt 0.569362 0.750000
vt 0.569362 0.000000
vt 0.569362 1.000000
vt 0.438964 1.000000
vt 0.375000 1.000000
vt 0.375000 0.000000
vt 0.375000 0.250000
vt 0.562490 0.750000
vt 0.562490 1.000000
vt 0.562490 0.000000
vt 0.562490 0.250000
vt 0.562490 0.500000
vt 0.453902 1.000000
vt 0.453902 0.750000
vt 0.438964 0.750000
vt 0.438964 0.000000
vt 0.453902 0.000000
vt 0.438964 1.000000
vt 0.438964 0.750000
vt 0.438964 1.000000
vt 0.438964 0.000000
vt 0.453902 0.000000
vt 0.512632 0.500000
vt 0.512632 0.250000
vt 0.512632 0.250000
vt 0.512632 0.500000
vt 0.512632 0.250000
vt 0.522671 0.250000
vt 0.522671 0.250000
vt 0.512632 0.500000
vt 0.522671 0.250000
vt 0.522671 0.250000
vt 0.512632 0.250000
vt 0.512632 0.500000
vt 0.522671 0.500000
vt 0.522671 0.250000
vt 0.522671 0.250000
vt 0.522671 0.500000
vn 0.0000 1.0000 0.0000
vn 0.0000 -0.0763 0.9971
vn -0.9984 0.0559 0.0000
vn 0.0000 -1.0000 0.0000
vn 0.9984 0.0559 0.0000
vn 0.0000 0.1270 -0.9919
vn 0.0000 0.0245 -0.9997
vn 0.9986 0.0530 0.0000
vn -0.9986 0.0530 0.0000
vn 0.0000 0.8277 -0.5611
vn 0.9988 0.0099 -0.0487
vn 1.0000 -0.0000 0.0000
vn -1.0000 -0.0000 0.0000
vn 0.0000 -0.1540 0.9881
vn 0.0000 -0.1376 -0.9905
vn 0.0000 0.1376 0.9905
vn 0.0000 0.0245 0.9997
vn 0.0000 0.1540 -0.9881
vn 0.0000 0.2278 -0.9737
vn 0.9974 0.0625 -0.0355
vn -0.9974 0.0625 -0.0355
vn 0.0000 -0.7895 0.6137
vn 0.0000 0.9661 0.2581
vn 0.9966 0.0662 -0.0483
vn -0.9966 0.0662 -0.0483
vn 0.0000 -0.1266 0.9920
vn 0.0000 -0.8015 -0.5980
vn -0.9979 0.0582 -0.0269
vn 0.9979 0.0582 -0.0269
vn 0.0000 -0.9650 -0.2624
vn 0.9982 0.0362 -0.0477
vn -0.9982 0.0362 -0.0477
vn 0.0000 0.9933 0.1157
vn 0.0000 0.8520 0.5236
vn 0.0000 0.1975 0.9803
vn 0.0000 -0.1786 -0.9839
vn -0.9988 0.0099 -0.0487
vn 0.0000 -0.5080 -0.8613
vn 0.0000 0.8330 0.5533
vn 0.0000 0.4087 -0.9127
vn 0.9949 0.0411 -0.0918
vn -0.9949 0.0411 -0.0918
vn 0.0000 0.6001 0.7999
usemtl Material.006
s off
f 1/1/1 5/2/1 7/3/1 3/4/1
f 19/5/2 3/4/2 7/6/2 17/7/2
f 17/8/3 7/9/3 5/10/3 20/11/3
f 6/12/4 2/13/4 4/14/4 8/15/4
f 18/16/5 1/1/5 3/4/5 19/5/5
f 20/11/6 5/10/6 1/1/6 18/16/6
f 23/17/7 12/18/7 9/19/7 21/20/7
f 21/20/8 9/19/8 11/21/8 22/22/8
f 24/23/9 10/24/9 12/18/9 23/17/9
f 11/21/10 10/25/10 38/26/10 39/27/10
f 49/28/11 46/29/11 54/30/11 55/31/11
f 25/32/12 14/33/12 15/34/12 26/35/12
f 28/36/13 13/37/13 16/38/13 27/39/13
f 26/35/14 15/34/14 13/40/14 28/41/14
f 36/42/15 20/11/15 18/16/15 34/43/15
f 34/43/12 18/16/12 19/5/12 35/44/12
f 33/45/13 17/8/13 20/11/13 36/42/13
f 35/44/16 19/5/16 17/7/16 33/46/16
f 4/14/17 22/22/17 24/47/17 8/48/17
f 8/49/9 24/23/9 23/17/9 6/50/9
f 2/13/8 21/20/8 22/22/8 4/14/8
f 6/50/7 23/17/7 21/20/7 2/13/7
f 11/21/14 26/35/14 28/41/14 10/25/14
f 10/24/13 28/36/13 27/39/13 12/18/13
f 9/19/12 25/32/12 26/35/12 11/21/12
f 12/18/18 27/39/18 25/32/18 9/19/18
f 15/34/16 30/51/16 32/52/16 13/40/16
f 13/37/13 32/53/13 31/54/13 16/38/13
f 14/33/12 29/55/12 30/51/12 15/34/12
f 16/38/15 31/54/15 29/55/15 14/33/15
f 30/51/16 35/44/16 33/46/16 32/52/16
f 32/53/13 33/45/13 36/42/13 31/54/13
f 29/55/12 34/43/12 35/44/12 30/51/12
f 31/54/15 36/42/15 34/43/15 29/55/15
f 39/27/19 38/26/19 42/56/19 43/57/19
f 22/22/20 11/21/20 39/27/20 40/58/20
f 10/24/21 24/23/21 37/59/21 38/60/21
f 24/47/22 22/22/22 40/58/22 37/61/22
f 44/62/23 43/57/23 42/56/23 41/63/23
f 40/58/24 39/27/24 43/57/24 44/62/24
f 38/60/25 37/59/25 41/64/25 42/65/25
f 37/61/26 40/58/26 44/62/26 41/63/26
f 47/66/27 48/67/27 60/68/27 59/69/27
f 51/70/28 50/71/28 45/72/28 48/67/28
f 49/28/29 52/73/29 47/66/29 46/29/29
f 52/73/30 51/70/30 48/67/30 47/66/30
f 25/32/30 27/39/30 51/70/30 52/73/30
f 14/33/31 25/32/31 52/73/31 49/28/31
f 27/39/32 16/38/32 50/71/32 51/70/32
f 16/38/33 14/33/33 49/28/33 50/71/33
f 56/74/34 55/31/34 54/30/34 53/75/34
f 50/71/35 49/28/35 55/31/35 56/74/35
f 46/29/36 45/72/36 53/75/36 54/30/36
f 45/72/37 50/71/37 56/74/37 53/75/37
f 59/69/38 60/68/38 64/76/38 63/77/38
f 46/29/12 47/66/12 59/69/12 58/78/12
f 48/67/13 45/72/13 57/79/13 60/68/13
f 45/72/39 46/29/39 58/78/39 57/79/39
f 64/76/40 61/80/40 62/81/40 63/77/40
f 58/78/41 59/69/41 63/77/41 62/81/41
f 60/68/42 57/79/42 61/80/42 64/76/42
f 57/79/43 58/78/43 62/81/43 61/80/43
