# Blender v2.81 (sub 16) OBJ File: 'Blank Rock.blend'
# www.blender.org
mtllib Octo Rock.mtl
o Cube.006_Cube.007
v 0.022500 -3.832512 -0.547884
v 0.554350 -4.052809 -0.546940
v 0.774649 -4.584654 -0.544660
v 0.554350 -5.116499 -0.542380
v 0.022500 -5.336796 -0.541435
v -0.509349 -5.116498 -0.542380
v -0.729649 -4.584654 -0.544660
v -0.509349 -4.052809 -0.546940
v -0.806400 -5.592419 0.649965
v -0.806400 -5.491397 0.722183
v -0.898103 -5.491397 0.649965
v -0.806400 -3.673005 0.722183
v -0.806400 -3.571983 0.649965
v -0.898103 -3.673005 0.649965
v -0.806400 -5.592419 -0.649965
v -0.898103 -5.491397 -0.649965
v -0.806400 -5.491397 -0.722183
v -0.806400 -3.571983 -0.649965
v -0.806400 -3.673005 -0.722183
v -0.898103 -3.673005 -0.649965
v 0.844258 -5.592419 0.649965
v 0.935961 -5.491397 0.649965
v 0.844258 -5.491397 0.722183
v 0.844258 -3.571983 0.649965
v 0.844258 -3.673005 0.722183
v 0.935961 -3.673005 0.649965
v 0.844258 -5.592419 -0.649965
v 0.844258 -5.491397 -0.722183
v 0.935961 -5.491397 -0.649965
v 0.844258 -3.571983 -0.649965
v 0.935961 -3.673005 -0.649965
v 0.844258 -3.673005 -0.722183
v -0.509349 -5.111077 0.722183
v 0.022500 -5.331379 0.722183
v 0.774649 -4.579223 0.722183
v -0.729649 -4.579223 0.722183
v 0.554350 -5.111077 0.722183
v -0.509349 -4.047369 0.722183
v 0.554350 -4.047369 0.722183
v 0.022500 -3.827067 0.722183
vt 0.387500 0.762500
vt 0.612500 0.762500
vt 0.500368 0.771988
vt 0.434559 0.802017
vt 0.407300 0.874513
vt 0.434559 0.947009
vt 0.500368 0.977038
vt 0.612500 0.987500
vt 0.387500 0.987500
vt 0.387500 0.262500
vt 0.612500 0.262500
vt 0.612500 0.487500
vt 0.387500 0.487500
vt 0.137500 0.737500
vt 0.137500 0.750000
vt 0.125000 0.737500
vt 0.625000 0.987500
vt 0.612500 1.000000
vt 0.137500 0.512500
vt 0.125000 0.512500
vt 0.137500 0.500000
vt 0.862500 0.512500
vt 0.862500 0.500000
vt 0.875000 0.512500
vt 0.362500 0.737500
vt 0.375000 0.737500
vt 0.362500 0.750000
vt 0.637500 0.737500
vt 0.637500 0.750000
vt 0.625000 0.737500
vt 0.362500 0.512500
vt 0.362500 0.500000
vt 0.375000 0.512500
vt 0.637500 0.512500
vt 0.625000 0.512500
vt 0.637500 0.500000
vt 0.387500 1.000000
vt 0.387500 0.237500
vt 0.612500 0.237500
vt 0.612500 0.512500
vt 0.387500 0.512500
vt 0.387500 0.737500
vt 0.612500 0.737500
vt 0.862500 0.737500
vt 0.862500 0.750000
vt 0.566178 0.947009
vt 0.593437 0.874513
vt 0.566178 0.802017
vt 1.000000 0.500000
vt 0.875000 0.500000
vt 0.875000 0.921836
vt 1.000000 0.922150
vt 0.750000 0.500000
vt 0.750000 0.921078
vt 0.625000 0.500000
vt 0.625000 0.920320
vt 0.500000 0.500000
vt 0.500000 0.920006
vt 0.375000 0.500000
vt 0.375000 0.920320
vt 0.250000 0.500000
vt 0.250000 0.921078
vt 0.125000 0.500000
vt 0.125000 0.921836
vt 0.000000 0.500000
vt 0.000000 0.922150
vt 0.750000 0.490000
vt 0.580294 0.419706
vt 0.510000 0.250000
vt 0.580294 0.080294
vt 0.750000 0.010000
vt 0.919706 0.080294
vt 0.990000 0.250000
vt 0.919706 0.419706
vt 0.387500 0.012500
vt 0.612500 0.012500
vt 0.875000 0.737500
vn 0.0000 0.0000 1.0000
vn 0.0000 0.0000 -1.0000
vn -0.5394 -0.4897 0.6850
vn -0.5394 0.4897 0.6850
vn -0.5394 -0.4897 -0.6850
vn -0.5394 0.4897 -0.6850
vn 0.5394 -0.4897 0.6850
vn 0.5394 0.4897 0.6850
vn 0.5394 -0.4897 -0.6850
vn 0.5394 0.4897 -0.6850
vn -0.6187 0.0000 0.7856
vn -0.6187 0.0000 -0.7856
vn 0.0000 -0.5816 -0.8135
vn 0.0000 0.5816 -0.8135
vn 0.6187 0.0000 -0.7856
vn 0.6187 0.0000 0.7856
vn 0.0000 -0.5816 0.8135
vn 0.0000 0.5816 0.8135
vn -0.3827 -0.9239 0.0040
vn -0.9239 -0.3827 0.0016
vn -0.9239 0.3827 -0.0016
vn -0.3827 0.9239 -0.0040
vn 0.3827 0.9239 -0.0040
vn 0.9239 0.3827 -0.0016
vn 0.9239 -0.3827 0.0016
vn 0.3827 -0.9239 0.0040
vn 0.0000 0.0043 1.0000
vn 1.0000 0.0000 0.0000
vn 0.0000 1.0000 0.0000
vn -1.0000 0.0000 0.0000
vn -0.7404 -0.6721 0.0000
vn -0.7404 0.6721 0.0000
vn 0.7404 -0.6721 0.0000
vn 0.7404 0.6721 0.0000
vn 0.0000 -1.0000 0.0000
usemtl Material.023
s off
f 23/1/1 25/2/1 35/3/1 37/4/1 34/5/1 33/6/1 36/7/1 12/8/1 10/9/1
f 17/10/2 19/11/2 32/12/2 28/13/2
f 9/14/3 10/15/3 11/16/3
f 12/8/4 13/17/4 14/18/4
f 15/19/5 16/20/5 17/21/5
f 18/22/6 19/23/6 20/24/6
f 21/25/7 22/26/7 23/27/7
f 24/28/8 25/29/8 26/30/8
f 27/31/9 28/32/9 29/33/9
f 30/34/10 31/35/10 32/36/10
f 10/9/11 12/8/11 14/18/11 11/37/11
f 19/11/12 17/10/12 16/38/12 20/39/12
f 27/31/13 15/19/13 17/21/13 28/32/13
f 18/22/14 30/34/14 32/36/14 19/23/14
f 31/40/15 29/41/15 28/13/15 32/12/15
f 25/2/16 23/1/16 22/42/16 26/43/16
f 9/14/17 21/25/17 23/27/17 10/15/17
f 24/28/18 13/44/18 12/45/18 25/29/18
f 12/8/1 36/7/1 38/46/1 40/47/1 39/48/1 35/3/1 25/2/1
usemtl Material.022
f 1/49/19 2/50/19 39/51/19 40/52/19
f 2/50/20 3/53/20 35/54/20 39/51/20
f 3/53/21 4/55/21 37/56/21 35/54/21
f 4/55/22 5/57/22 34/58/22 37/56/22
f 5/57/23 6/59/23 33/60/23 34/58/23
f 6/59/24 7/61/24 36/62/24 33/60/24
f 7/61/25 8/63/25 38/64/25 36/62/25
f 8/63/26 1/65/26 40/66/26 38/64/26
f 1/67/27 8/68/27 7/69/27 6/70/27 5/71/27 4/72/27 3/73/27 2/74/27
usemtl Material.021
f 29/41/28 31/40/28 26/43/28 22/42/28
f 30/34/29 18/22/29 13/44/29 24/28/29
f 11/75/30 14/76/30 20/39/30 16/38/30
f 15/19/31 9/14/31 11/16/31 16/20/31
f 13/44/32 18/22/32 20/24/32 14/77/32
f 21/25/33 27/31/33 29/41/33 22/42/33
f 30/34/34 24/28/34 26/43/34 31/40/34
f 15/19/35 27/31/35 21/25/35 9/14/35
